<svg width="50" height="50" viewBox="0 0 50 50" fill="none" xmlns="http://www.w3.org/2000/svg">
<path d="M47.7273 18.75H45.4545C44.1989 18.75 43.1818 19.4492 43.1818 20.3125V25C43.1818 32.3047 34.0213 38.166 23.1832 37.4395C13.7372 36.8057 6.81818 30.9678 6.81818 24.4434V20.3125C6.81818 19.4492 5.80114 18.75 4.54545 18.75H2.27273C1.01705 18.75 0 19.4492 0 20.3125V24.2344C0 32.9883 9.08665 40.792 21.5909 41.9775V45.3125H13.6364C12.3807 45.3125 11.3636 46.0117 11.3636 46.875V48.4375C11.3636 49.3008 12.3807 50 13.6364 50H36.3636C37.6193 50 38.6364 49.3008 38.6364 48.4375V46.875C38.6364 46.0117 37.6193 45.3125 36.3636 45.3125H28.4091V42.0146C40.5838 40.8662 50 33.6816 50 25V20.3125C50 19.4492 48.983 18.75 47.7273 18.75ZM25 34.375C32.5312 34.375 38.6364 30.1777 38.6364 25H26.5156C25.679 25 25 24.6504 25 24.2188V22.6562C25 22.2246 25.679 21.875 26.5156 21.875H38.6364V18.75H26.5156C25.679 18.75 25 18.4004 25 17.9688V16.4062C25 15.9746 25.679 15.625 26.5156 15.625H38.6364V12.5H26.5156C25.679 12.5 25 12.1504 25 11.7188V10.1562C25 9.72461 25.679 9.375 26.5156 9.375H38.6364C38.6364 4.19727 32.5312 0 25 0C17.4688 0 11.3636 4.19727 11.3636 9.375V25C11.3636 30.1777 17.4688 34.375 25 34.375Z" fill="black"/>
</svg>
